name C:\Users\u0101727\Documents\MyRepositories\upper-imu-dc\OpenSim\subject0\MA\MA_Splines\angle_in_n6_dof6_1.mot
datacolumns 7
datarows 40
range 100.01000000 100.40000000
endheader 
time	clav_prot	clav_elev	scapula_abduction	scapula_elevation	scapula_upward_rot	scapula_winging	
        100.01000000	        -22.39390379	         11.96046367	        -22.45226073	          4.10553212	         23.68359952	         -8.57402492	
        100.02000000	        -16.90593547	         11.96046367	        -22.45226073	          4.10553212	         23.68359952	         -8.57402492	
        100.03000000	        -44.34577705	         16.86370047	        -22.45226073	          4.10553212	         23.68359952	         -8.57402492	
        100.04000000	        -38.85780873	         16.86370047	        -22.45226073	          4.10553212	         23.68359952	         -8.57402492	
        100.05000000	        -33.36984042	         16.86370047	        -22.45226073	          4.10553212	         23.68359952	         -8.57402492	
        100.06000000	        -27.88187210	         16.86370047	        -22.45226073	          4.10553212	         23.68359952	         -8.57402492	
        100.07000000	        -22.39390379	         16.86370047	        -22.45226073	          4.10553212	         23.68359952	         -8.57402492	
        100.08000000	        -16.90593547	         16.86370047	        -22.45226073	          4.10553212	         23.68359952	         -8.57402492	
        100.09000000	        -44.34577705	         -7.65248351	        -14.01721834	          4.10553212	         23.68359952	         -8.57402492	
        100.10000000	        -38.85780873	         -7.65248351	        -14.01721834	          4.10553212	         23.68359952	         -8.57402492	
        100.11000000	        -33.36984042	         -7.65248351	        -14.01721834	          4.10553212	         23.68359952	         -8.57402492	
        100.12000000	        -27.88187210	         -7.65248351	        -14.01721834	          4.10553212	         23.68359952	         -8.57402492	
        100.13000000	        -22.39390379	         -7.65248351	        -14.01721834	          4.10553212	         23.68359952	         -8.57402492	
        100.14000000	        -16.90593547	         -7.65248351	        -14.01721834	          4.10553212	         23.68359952	         -8.57402492	
        100.15000000	        -44.34577705	         -2.74924671	        -14.01721834	          4.10553212	         23.68359952	         -8.57402492	
        100.16000000	        -38.85780873	         -2.74924671	        -14.01721834	          4.10553212	         23.68359952	         -8.57402492	
        100.17000000	        -33.36984042	         -2.74924671	        -14.01721834	          4.10553212	         23.68359952	         -8.57402492	
        100.18000000	        -27.88187210	         -2.74924671	        -14.01721834	          4.10553212	         23.68359952	         -8.57402492	
        100.19000000	        -22.39390379	         -2.74924671	        -14.01721834	          4.10553212	         23.68359952	         -8.57402492	
        100.20000000	        -16.90593547	         -2.74924671	        -14.01721834	          4.10553212	         23.68359952	         -8.57402492	
        100.21000000	        -44.34577705	          2.15399008	        -14.01721834	          4.10553212	         23.68359952	         -8.57402492	
        100.22000000	        -38.85780873	          2.15399008	        -14.01721834	          4.10553212	         23.68359952	         -8.57402492	
        100.23000000	        -33.36984042	          2.15399008	        -14.01721834	          4.10553212	         23.68359952	         -8.57402492	
        100.24000000	        -27.88187210	          2.15399008	        -14.01721834	          4.10553212	         23.68359952	         -8.57402492	
        100.25000000	        -22.39390379	          2.15399008	        -14.01721834	          4.10553212	         23.68359952	         -8.57402492	
        100.26000000	        -16.90593547	          2.15399008	        -14.01721834	          4.10553212	         23.68359952	         -8.57402492	
        100.27000000	        -44.34577705	          7.05722688	        -14.01721834	          4.10553212	         23.68359952	         -8.57402492	
        100.28000000	        -38.85780873	          7.05722688	        -14.01721834	          4.10553212	         23.68359952	         -8.57402492	
        100.29000000	        -33.36984042	          7.05722688	        -14.01721834	          4.10553212	         23.68359952	         -8.57402492	
        100.30000000	        -27.88187210	          7.05722688	        -14.01721834	          4.10553212	         23.68359952	         -8.57402492	
        100.31000000	        -22.39390379	          7.05722688	        -14.01721834	          4.10553212	         23.68359952	         -8.57402492	
        100.32000000	        -16.90593547	          7.05722688	        -14.01721834	          4.10553212	         23.68359952	         -8.57402492	
        100.33000000	        -44.34577705	         11.96046367	        -14.01721834	          4.10553212	         23.68359952	         -8.57402492	
        100.34000000	        -38.85780873	         11.96046367	        -14.01721834	          4.10553212	         23.68359952	         -8.57402492	
        100.35000000	        -33.36984042	         11.96046367	        -14.01721834	          4.10553212	         23.68359952	         -8.57402492	
        100.36000000	        -27.88187210	         11.96046367	        -14.01721834	          4.10553212	         23.68359952	         -8.57402492	
        100.37000000	        -22.39390379	         11.96046367	        -14.01721834	          4.10553212	         23.68359952	         -8.57402492	
        100.38000000	        -16.90593547	         11.96046367	        -14.01721834	          4.10553212	         23.68359952	         -8.57402492	
        100.39000000	        -44.34577705	         16.86370047	        -14.01721834	          4.10553212	         23.68359952	         -8.57402492	
        100.40000000	        -38.85780873	         16.86370047	        -14.01721834	          4.10553212	         23.68359952	         -8.57402492	
